<?xml version="1.0" standalone="no"?>
<!DOCTYPE svg PUBLIC "-//W3C//DTD SVG 20010904//EN"
 "http://www.w3.org/TR/2001/REC-SVG-20010904/DTD/svg10.dtd">
<svg version="1.0" xmlns="http://www.w3.org/2000/svg"
 width="500.000000pt" height="500.000000pt" viewBox="0 0 500.000000 500.000000"
 preserveAspectRatio="xMidYMid meet">

<g transform="translate(0.000000,500.000000) scale(0.100000,-0.100000)"
fill="#000000" stroke="none">
<path d="M3620 3183 c-74 -4 -76 -4 -122 -50 -26 -26 -55 -48 -64 -49 -22 -3
-27 -11 -21 -29 9 -23 35 -18 42 8 4 12 26 41 48 65 40 41 43 42 104 42 35 0
72 -6 83 -12 15 -9 22 -10 31 -1 13 13 4 34 -14 31 -7 -1 -46 -4 -87 -5z"/>
<path d="M4020 3173 c0 -17 32 -31 38 -15 2 8 28 12 71 12 67 0 67 0 112 -47
26 -27 49 -56 52 -65 7 -20 32 -24 42 -8 7 12 -14 44 -23 35 -3 -3 -29 17 -56
44 l-51 49 -92 5 c-76 4 -93 2 -93 -10z"/>
<path d="M3664 3098 c-12 -19 15 -34 36 -20 44 27 96 9 113 -40 9 -25 37 -23
37 2 0 11 -5 20 -12 20 -6 0 -21 8 -32 19 -24 21 -132 36 -142 19z"/>
<path d="M4010 3103 c-25 -3 -54 -12 -65 -22 -11 -10 -28 -21 -38 -25 -10 -3
-17 -12 -15 -19 7 -20 37 -20 45 0 17 50 69 68 113 41 17 -11 22 -10 30 2 10
17 4 31 -13 28 -7 -1 -32 -3 -57 -5z"/>
<path d="M3494 3043 c-10 -26 -85 -103 -111 -114 -28 -11 -30 -39 -3 -39 13 0
20 7 20 18 0 22 78 99 105 104 12 2 20 11 20 22 0 26 -23 32 -31 9z"/>
<path d="M4224 3045 c-8 -19 3 -35 25 -35 22 0 101 -81 101 -104 0 -11 6 -16
17 -14 26 5 27 27 1 37 -27 11 -102 88 -111 114 -8 21 -26 22 -33 2z"/>
<path d="M3563 3011 c-7 -11 -23 -21 -35 -23 -27 -4 -31 -31 -5 -36 10 -2 20
4 24 15 15 44 33 53 108 53 l72 0 56 -59 c32 -33 57 -56 57 -52 0 3 -26 32
-58 64 l-58 57 -74 0 c-63 0 -77 -3 -87 -19z"/>
<path d="M3963 2971 c-71 -77 -68 -85 4 -10 l56 59 72 0 c74 0 93 -9 108 -52
8 -21 33 -24 40 -4 7 17 -1 26 -23 26 -9 0 -25 9 -35 20 -15 17 -30 20 -94 19
l-76 -1 -52 -57z"/>
<path d="M3550 2913 l-65 -68 65 63 c57 54 70 62 104 62 23 0 48 -7 60 -17 21
-18 21 -18 2 5 -14 16 -30 22 -60 22 -38 0 -47 -6 -106 -67z"/>
<path d="M4034 2958 c-19 -23 -19 -23 2 -5 12 10 37 17 60 17 34 0 47 -8 104
-62 l65 -63 -65 68 c-59 61 -68 67 -106 67 -30 0 -46 -6 -60 -22z"/>
<path d="M3585 2890 c-21 -22 -35 -40 -31 -40 5 0 28 18 52 40 24 22 38 40 31
40 -7 0 -31 -18 -52 -40z"/>
<path d="M4101 2928 c2 -2 24 -21 49 -43 l45 -40 -40 43 c-21 23 -43 42 -49
42 -5 0 -7 -1 -5 -2z"/>
<path d="M3440 2904 c0 -10 -8 -27 -17 -38 -18 -20 -18 -21 2 -5 11 9 28 19
38 22 22 8 18 31 -6 35 -11 2 -17 -3 -17 -14z"/>
<path d="M4270 2905 c0 -9 8 -18 18 -22 9 -3 26 -13 37 -22 20 -16 20 -15 3 5
-10 11 -18 28 -18 37 0 10 -8 17 -20 17 -11 0 -20 -7 -20 -15z"/>
<path d="M3698 2903 c-15 -2 -33 -16 -43 -31 -16 -27 -16 -27 2 -6 28 32 87
39 121 16 37 -26 52 -34 52 -29 0 9 -80 57 -92 56 -7 -1 -25 -4 -40 -6z"/>
<path d="M3946 2880 c-22 -16 -36 -30 -32 -30 4 0 22 11 41 25 28 22 39 25 76
19 24 -4 50 -14 57 -23 11 -14 11 -13 2 7 -6 12 -19 22 -29 22 -10 0 -31 2
-47 5 -22 4 -39 -2 -68 -25z"/>
</g>
</svg>
